<svg xmlns="http://www.w3.org/2000/svg" viewBox="0 0 1200 900" role="img" aria-label="Custom Gift Hamper placeholder">
  <rect width="1200" height="900" fill="#f5fbf7"/>
  <path d="M260 410h680l-70 280H330z" fill="#c88446"/>
  <path d="M350 410c0-160 110-250 250-250s250 90 250 250" fill="none" stroke="#8a562b" stroke-width="36"/>
  <rect x="365" y="285" width="130" height="150" rx="20" fill="#ef6f6c"/>
  <rect x="535" y="245" width="150" height="190" rx="20" fill="#1ab09b"/>
  <rect x="725" y="305" width="130" height="130" rx="20" fill="#ffe2b7"/>
  <circle cx="600" cy="510" r="72" fill="#ffffff"/>
  <path d="M600 470c-36-38-94-11-77 38 12 34 77 69 77 69s65-35 77-69c17-49-41-76-77-38z" fill="#ef6f6c"/>
  <text x="600" y="795" text-anchor="middle" font-family="Arial, sans-serif" font-size="62" font-weight="800" fill="#17202a">Custom Gift Hamper</text>
</svg>
